<svg xmlns="http://www.w3.org/2000/svg" xmlns:xlink="http://www.w3.org/1999/xlink" width="500" zoomAndPan="magnify" viewBox="0 0 375 374.999991" height="500" preserveAspectRatio="xMidYMid meet" version="1.0"><defs><g/><clipPath id="14a4b16c0c"><path d="M 95.859375 72.941406 L 279.585938 72.941406 L 279.585938 235.8125 L 95.859375 235.8125 Z M 95.859375 72.941406 " clip-rule="nonzero"/></clipPath><clipPath id="baef18ffe9"><path d="M 129.386719 193 L 245.582031 193 L 245.582031 254.425781 L 129.386719 254.425781 Z M 129.386719 193 " clip-rule="nonzero"/></clipPath><clipPath id="ae1ac8ca96"><path d="M 212 84.601562 L 231 84.601562 L 231 220 L 212 220 Z M 212 84.601562 " clip-rule="nonzero"/></clipPath></defs><rect x="-37.5" width="450" fill="#ffffff" y="-37.499999" height="449.999989" fill-opacity="1"/><rect x="-37.5" width="450" fill="#ffffff" y="-37.499999" height="449.999989" fill-opacity="1"/><g clip-path="url(#14a4b16c0c)"><path fill="#4d4d4d" d="M 187.5 256.21875 C 136.871094 256.21875 95.859375 214.925781 95.859375 164.582031 C 95.859375 114.234375 136.871094 72.941406 187.5 72.941406 C 238.125 72.941406 279.136719 113.953125 279.136719 164.582031 C 279.136719 215.207031 237.84375 256.21875 187.5 256.21875 Z M 187.5 78.597656 C 139.984375 78.597656 101.519531 117.0625 101.519531 164.582031 C 101.519531 212.097656 139.984375 250.5625 187.5 250.5625 C 235.015625 250.5625 273.480469 212.097656 273.480469 164.582031 C 273.480469 117.0625 234.734375 78.597656 187.5 78.597656 Z M 187.5 78.597656 " fill-opacity="1" fill-rule="nonzero"/></g><g clip-path="url(#baef18ffe9)"><path fill="#b9a666" d="M 299.089844 254.34375 L 262.226562 254.34375 L 186.796875 204.050781 L 115.203125 253.589844 L 100.464844 253.496094 L 186.710938 193.824219 L 264.792969 245.878906 L 299.089844 245.878906 Z M 299.089844 254.34375 " fill-opacity="1" fill-rule="nonzero"/></g><path fill="#b9a666" d="M 188.851562 191.453125 L 208.253906 204.296875 L 208.253906 99.679688 L 188.667969 118.859375 L 188.667969 191.347656 C 188.734375 191.378906 188.792969 191.410156 188.851562 191.453125 Z M 188.851562 191.453125 " fill-opacity="1" fill-rule="nonzero"/><g clip-path="url(#ae1ac8ca96)"><path fill="#4d4d4d" d="M 230.167969 219.292969 L 230.167969 104.695312 L 212.210938 84.699219 L 212.210938 207.40625 Z M 230.167969 219.292969 " fill-opacity="1" fill-rule="nonzero"/></g><path fill="#4d4d4d" d="M 184.65625 191.453125 L 165.257812 204.296875 L 165.257812 118.859375 L 184.839844 138.039062 L 184.839844 191.347656 C 184.773438 191.378906 184.714844 191.410156 184.65625 191.453125 Z M 184.65625 191.453125 " fill-opacity="1" fill-rule="nonzero"/><path fill="#b9a666" d="M 143.332031 219.292969 L 143.332031 143.976562 L 161.296875 123.980469 L 161.296875 207.40625 Z M 143.332031 219.292969 " fill-opacity="1" fill-rule="nonzero"/><path fill="#b9a666" d="M 176.734375 220.015625 L 186.207031 220.015625 L 186.207031 229.484375 L 176.734375 229.484375 Z M 176.734375 220.015625 " fill-opacity="1" fill-rule="nonzero"/><path fill="#4d4d4d" d="M 188.9375 220.015625 L 198.40625 220.015625 L 198.40625 229.484375 L 188.9375 229.484375 Z M 188.9375 220.015625 " fill-opacity="1" fill-rule="nonzero"/><path fill="#4d4d4d" d="M 176.734375 231.230469 L 186.207031 231.230469 L 186.207031 240.699219 L 176.734375 240.699219 Z M 176.734375 231.230469 " fill-opacity="1" fill-rule="nonzero"/><path fill="#b9a666" d="M 188.9375 231.230469 L 198.40625 231.230469 L 198.40625 240.699219 L 188.9375 240.699219 Z M 188.9375 231.230469 " fill-opacity="1" fill-rule="nonzero"/><g fill="#4d4d4d" fill-opacity="1"><g transform="translate(117.833027, 281.279072)"><g><path d="M 8.84375 -9.25 L 15.078125 -9.25 L 12.03125 -18.90625 L 11.96875 -18.90625 Z M 5.796875 0 L 0.421875 0 L 9.109375 -24.40625 L 15.015625 -24.40625 L 23.609375 0 L 18.0625 0 L 16.5 -5.03125 L 7.484375 -5.03125 Z M 5.796875 0 "/></g></g></g><g fill="#4d4d4d" fill-opacity="1"><g transform="translate(141.856876, 281.279072)"><g><path d="M 12.96875 0 L 7.875 0 L 7.875 -20.09375 L 0.5 -20.09375 L 0.5 -24.40625 L 20.359375 -24.40625 L 20.359375 -20.09375 L 12.96875 -20.09375 Z M 12.96875 0 "/></g></g></g><g fill="#4d4d4d" fill-opacity="1"><g transform="translate(162.709642, 281.279072)"><g><path d="M 12.96875 0 L 7.875 0 L 7.875 -20.09375 L 0.5 -20.09375 L 0.5 -24.40625 L 20.359375 -24.40625 L 20.359375 -20.09375 L 12.96875 -20.09375 Z M 12.96875 0 "/></g></g></g><g fill="#4d4d4d" fill-opacity="1"><g transform="translate(183.562407, 281.279072)"><g><path d="M 22.21875 -24.40625 L 22.21875 0 L 17.109375 0 L 17.109375 -10.9375 L 7.59375 -10.9375 L 7.59375 0 L 2.484375 0 L 2.484375 -24.40625 L 7.59375 -24.40625 L 7.59375 -15.15625 L 17.109375 -15.15625 L 17.109375 -24.40625 Z M 22.21875 -24.40625 "/></g></g></g><g fill="#4d4d4d" fill-opacity="1"><g transform="translate(208.266958, 281.279072)"><g><path d="M 8.84375 -9.25 L 15.078125 -9.25 L 12.03125 -18.90625 L 11.96875 -18.90625 Z M 5.796875 0 L 0.421875 0 L 9.109375 -24.40625 L 15.015625 -24.40625 L 23.609375 0 L 18.0625 0 L 16.5 -5.03125 L 7.484375 -5.03125 Z M 5.796875 0 "/></g></g></g><g fill="#4d4d4d" fill-opacity="1"><g transform="translate(232.290806, 281.279072)"><g><path d="M 17.625 -24.40625 L 22.375 -24.40625 L 22.375 0 L 17.28125 0 L 7.328125 -17.421875 L 7.25 -17.421875 L 7.25 0 L 2.484375 0 L 2.484375 -24.40625 L 7.875 -24.40625 L 17.5625 -7.40625 L 17.625 -7.40625 Z M 17.625 -24.40625 "/></g></g></g><g fill="#b9a666" fill-opacity="0.3098"><g transform="translate(120.402586, 298.40872)"><g><path d="M 0.859375 0 L 0.859375 -8.859375 L 4.109375 -8.859375 C 4.816406 -8.859375 5.398438 -8.738281 5.859375 -8.5 C 6.328125 -8.257812 6.671875 -7.929688 6.890625 -7.515625 C 7.117188 -7.109375 7.234375 -6.65625 7.234375 -6.15625 C 7.234375 -5.625 7.09375 -5.132812 6.8125 -4.6875 C 6.53125 -4.238281 6.09375 -3.910156 5.5 -3.703125 L 7.328125 0 L 5.46875 0 L 3.828125 -3.5 L 2.484375 -3.5 L 2.484375 0 Z M 2.484375 -4.6875 L 4.015625 -4.6875 C 4.554688 -4.6875 4.953125 -4.816406 5.203125 -5.078125 C 5.453125 -5.335938 5.578125 -5.679688 5.578125 -6.109375 C 5.578125 -6.535156 5.453125 -6.875 5.203125 -7.125 C 4.953125 -7.375 4.550781 -7.5 4 -7.5 L 2.484375 -7.5 Z M 2.484375 -4.6875 "/></g></g></g><g fill="#b9a666" fill-opacity="0.3098"><g transform="translate(128.280092, 298.40872)"><g><path d="M 0.859375 0 L 0.859375 -8.859375 L 6.640625 -8.859375 L 6.640625 -7.5625 L 2.484375 -7.5625 L 2.484375 -5.125 L 6.265625 -5.125 L 6.265625 -3.859375 L 2.484375 -3.859375 L 2.484375 -1.296875 L 6.640625 -1.296875 L 6.640625 0 Z M 0.859375 0 "/></g></g></g><g fill="#b9a666" fill-opacity="0.3098"><g transform="translate(135.588597, 298.40872)"><g><path d="M 0.296875 0 L 3.53125 -8.859375 L 5.359375 -8.859375 L 8.59375 0 L 6.875 0 L 6.15625 -2.046875 L 2.703125 -2.046875 L 1.984375 0 Z M 3.15625 -3.3125 L 5.71875 -3.3125 L 4.421875 -7 Z M 3.15625 -3.3125 "/></g></g></g><g fill="#b9a666" fill-opacity="0.3098"><g transform="translate(144.452366, 298.40872)"><g><path d="M 0.859375 0 L 0.859375 -8.859375 L 2.484375 -8.859375 L 2.484375 -1.265625 L 6.40625 -1.265625 L 6.40625 0 Z M 0.859375 0 "/></g></g></g><g fill="#b9a666" fill-opacity="0.3098"><g transform="translate(151.419472, 298.40872)"><g/></g></g><g fill="#b9a666" fill-opacity="0.3098"><g transform="translate(154.428856, 298.40872)"><g><path d="M 0.859375 0 L 0.859375 -8.859375 L 6.640625 -8.859375 L 6.640625 -7.5625 L 2.484375 -7.5625 L 2.484375 -5.125 L 6.265625 -5.125 L 6.265625 -3.859375 L 2.484375 -3.859375 L 2.484375 -1.296875 L 6.640625 -1.296875 L 6.640625 0 Z M 0.859375 0 "/></g></g></g><g fill="#b9a666" fill-opacity="0.3098"><g transform="translate(161.737361, 298.40872)"><g><path d="M 3.890625 0.15625 C 3.234375 0.15625 2.65625 0.046875 2.15625 -0.171875 C 1.664062 -0.398438 1.273438 -0.722656 0.984375 -1.140625 C 0.703125 -1.554688 0.554688 -2.066406 0.546875 -2.671875 L 2.25 -2.671875 C 2.269531 -2.253906 2.421875 -1.90625 2.703125 -1.625 C 2.984375 -1.34375 3.375 -1.203125 3.875 -1.203125 C 4.300781 -1.203125 4.640625 -1.304688 4.890625 -1.515625 C 5.148438 -1.722656 5.28125 -2 5.28125 -2.34375 C 5.28125 -2.707031 5.164062 -2.988281 4.9375 -3.1875 C 4.71875 -3.394531 4.421875 -3.5625 4.046875 -3.6875 C 3.679688 -3.8125 3.285156 -3.945312 2.859375 -4.09375 C 2.171875 -4.320312 1.648438 -4.625 1.296875 -5 C 0.941406 -5.375 0.765625 -5.867188 0.765625 -6.484375 C 0.753906 -7.003906 0.875 -7.453125 1.125 -7.828125 C 1.382812 -8.203125 1.738281 -8.492188 2.1875 -8.703125 C 2.632812 -8.910156 3.148438 -9.015625 3.734375 -9.015625 C 4.328125 -9.015625 4.847656 -8.90625 5.296875 -8.6875 C 5.742188 -8.476562 6.097656 -8.179688 6.359375 -7.796875 C 6.617188 -7.421875 6.753906 -6.972656 6.765625 -6.453125 L 5.03125 -6.453125 C 5.03125 -6.765625 4.910156 -7.039062 4.671875 -7.28125 C 4.441406 -7.519531 4.117188 -7.640625 3.703125 -7.640625 C 3.347656 -7.648438 3.050781 -7.5625 2.8125 -7.375 C 2.570312 -7.195312 2.453125 -6.9375 2.453125 -6.59375 C 2.453125 -6.300781 2.546875 -6.066406 2.734375 -5.890625 C 2.921875 -5.710938 3.171875 -5.566406 3.484375 -5.453125 C 3.804688 -5.335938 4.175781 -5.210938 4.59375 -5.078125 C 5.03125 -4.921875 5.429688 -4.738281 5.796875 -4.53125 C 6.160156 -4.332031 6.453125 -4.066406 6.671875 -3.734375 C 6.890625 -3.398438 7 -2.972656 7 -2.453125 C 7 -1.992188 6.878906 -1.5625 6.640625 -1.15625 C 6.410156 -0.757812 6.0625 -0.441406 5.59375 -0.203125 C 5.125 0.0351562 4.554688 0.15625 3.890625 0.15625 Z M 3.890625 0.15625 "/></g></g></g><g fill="#b9a666" fill-opacity="0.3098"><g transform="translate(169.286113, 298.40872)"><g><path d="M 2.921875 0 L 2.921875 -7.5625 L 0.34375 -7.5625 L 0.34375 -8.859375 L 7.140625 -8.859375 L 7.140625 -7.5625 L 4.546875 -7.5625 L 4.546875 0 Z M 2.921875 0 "/></g></g></g><g fill="#b9a666" fill-opacity="0.3098"><g transform="translate(176.75899, 298.40872)"><g><path d="M 0.296875 0 L 3.53125 -8.859375 L 5.359375 -8.859375 L 8.59375 0 L 6.875 0 L 6.15625 -2.046875 L 2.703125 -2.046875 L 1.984375 0 Z M 3.15625 -3.3125 L 5.71875 -3.3125 L 4.421875 -7 Z M 3.15625 -3.3125 "/></g></g></g><g fill="#b9a666" fill-opacity="0.3098"><g transform="translate(185.622759, 298.40872)"><g><path d="M 2.921875 0 L 2.921875 -7.5625 L 0.34375 -7.5625 L 0.34375 -8.859375 L 7.140625 -8.859375 L 7.140625 -7.5625 L 4.546875 -7.5625 L 4.546875 0 Z M 2.921875 0 "/></g></g></g><g fill="#b9a666" fill-opacity="0.3098"><g transform="translate(193.095636, 298.40872)"><g><path d="M 0.859375 0 L 0.859375 -8.859375 L 6.640625 -8.859375 L 6.640625 -7.5625 L 2.484375 -7.5625 L 2.484375 -5.125 L 6.265625 -5.125 L 6.265625 -3.859375 L 2.484375 -3.859375 L 2.484375 -1.296875 L 6.640625 -1.296875 L 6.640625 0 Z M 0.859375 0 "/></g></g></g><g fill="#b9a666" fill-opacity="0.3098"><g transform="translate(200.404141, 298.40872)"><g/></g></g><g fill="#b9a666" fill-opacity="0.3098"><g transform="translate(203.413525, 298.40872)"><g><path d="M 0.296875 0 L 3.53125 -8.859375 L 5.359375 -8.859375 L 8.59375 0 L 6.875 0 L 6.15625 -2.046875 L 2.703125 -2.046875 L 1.984375 0 Z M 3.15625 -3.3125 L 5.71875 -3.3125 L 4.421875 -7 Z M 3.15625 -3.3125 "/></g></g></g><g fill="#b9a666" fill-opacity="0.3098"><g transform="translate(212.277294, 298.40872)"><g><path d="M 4.734375 0.15625 C 3.898438 0.15625 3.171875 -0.03125 2.546875 -0.40625 C 1.921875 -0.789062 1.429688 -1.320312 1.078125 -2 C 0.734375 -2.6875 0.5625 -3.476562 0.5625 -4.375 C 0.5625 -5.289062 0.738281 -6.09375 1.09375 -6.78125 C 1.457031 -7.476562 1.96875 -8.023438 2.625 -8.421875 C 3.289062 -8.816406 4.082031 -9.015625 5 -9.015625 C 6.039062 -9.015625 6.898438 -8.765625 7.578125 -8.265625 C 8.265625 -7.765625 8.707031 -7.078125 8.90625 -6.203125 L 7.09375 -6.203125 C 6.957031 -6.617188 6.710938 -6.941406 6.359375 -7.171875 C 6.003906 -7.398438 5.550781 -7.515625 5 -7.515625 C 4.113281 -7.515625 3.429688 -7.234375 2.953125 -6.671875 C 2.472656 -6.109375 2.234375 -5.335938 2.234375 -4.359375 C 2.234375 -3.378906 2.46875 -2.625 2.9375 -2.09375 C 3.414062 -1.5625 4.066406 -1.296875 4.890625 -1.296875 C 5.691406 -1.296875 6.296875 -1.507812 6.703125 -1.9375 C 7.109375 -2.375 7.351562 -2.945312 7.4375 -3.65625 L 5.203125 -3.65625 L 5.203125 -4.875 L 9.078125 -4.875 L 9.078125 0 L 7.578125 0 L 7.453125 -1.171875 C 7.171875 -0.742188 6.8125 -0.414062 6.375 -0.1875 C 5.945312 0.0390625 5.398438 0.15625 4.734375 0.15625 Z M 4.734375 0.15625 "/></g></g></g><g fill="#b9a666" fill-opacity="0.3098"><g transform="translate(222.051463, 298.40872)"><g><path d="M 0.859375 0 L 0.859375 -8.859375 L 6.640625 -8.859375 L 6.640625 -7.5625 L 2.484375 -7.5625 L 2.484375 -5.125 L 6.265625 -5.125 L 6.265625 -3.859375 L 2.484375 -3.859375 L 2.484375 -1.296875 L 6.640625 -1.296875 L 6.640625 0 Z M 0.859375 0 "/></g></g></g><g fill="#b9a666" fill-opacity="0.3098"><g transform="translate(229.359969, 298.40872)"><g><path d="M 0.859375 0 L 0.859375 -8.859375 L 2.484375 -8.859375 L 6.640625 -2.625 L 6.640625 -8.859375 L 8.265625 -8.859375 L 8.265625 0 L 6.640625 0 L 2.484375 -6.234375 L 2.484375 0 Z M 0.859375 0 "/></g></g></g><g fill="#b9a666" fill-opacity="0.3098"><g transform="translate(238.476629, 298.40872)"><g><path d="M 4.875 0.15625 C 3.976562 0.15625 3.207031 -0.0351562 2.5625 -0.421875 C 1.925781 -0.804688 1.429688 -1.34375 1.078125 -2.03125 C 0.734375 -2.71875 0.5625 -3.515625 0.5625 -4.421875 C 0.5625 -5.316406 0.734375 -6.109375 1.078125 -6.796875 C 1.429688 -7.492188 1.925781 -8.035156 2.5625 -8.421875 C 3.207031 -8.816406 3.976562 -9.015625 4.875 -9.015625 C 5.9375 -9.015625 6.804688 -8.75 7.484375 -8.21875 C 8.160156 -7.6875 8.585938 -6.945312 8.765625 -6 L 6.96875 -6 C 6.863281 -6.476562 6.628906 -6.851562 6.265625 -7.125 C 5.910156 -7.40625 5.4375 -7.546875 4.84375 -7.546875 C 4.03125 -7.546875 3.390625 -7.265625 2.921875 -6.703125 C 2.460938 -6.148438 2.234375 -5.390625 2.234375 -4.421875 C 2.234375 -3.453125 2.460938 -2.6875 2.921875 -2.125 C 3.390625 -1.570312 4.03125 -1.296875 4.84375 -1.296875 C 5.4375 -1.296875 5.910156 -1.425781 6.265625 -1.6875 C 6.628906 -1.945312 6.863281 -2.304688 6.96875 -2.765625 L 8.765625 -2.765625 C 8.585938 -1.847656 8.160156 -1.128906 7.484375 -0.609375 C 6.804688 -0.0976562 5.9375 0.15625 4.875 0.15625 Z M 4.875 0.15625 "/></g></g></g><g fill="#b9a666" fill-opacity="0.3098"><g transform="translate(247.795599, 298.40872)"><g><path d="M 3.15625 0 L 3.15625 -3.15625 L 0.171875 -8.859375 L 2.015625 -8.859375 L 3.96875 -4.765625 L 5.921875 -8.859375 L 7.734375 -8.859375 L 4.765625 -3.15625 L 4.765625 0 Z M 3.15625 0 "/></g></g></g><g fill="#b9a666" fill-opacity="1"><g transform="translate(119.843221, 297.849355)"><g><path d="M 0.859375 0 L 0.859375 -8.859375 L 4.109375 -8.859375 C 4.816406 -8.859375 5.398438 -8.738281 5.859375 -8.5 C 6.328125 -8.257812 6.671875 -7.929688 6.890625 -7.515625 C 7.117188 -7.109375 7.234375 -6.65625 7.234375 -6.15625 C 7.234375 -5.625 7.09375 -5.132812 6.8125 -4.6875 C 6.53125 -4.238281 6.09375 -3.910156 5.5 -3.703125 L 7.328125 0 L 5.46875 0 L 3.828125 -3.5 L 2.484375 -3.5 L 2.484375 0 Z M 2.484375 -4.6875 L 4.015625 -4.6875 C 4.554688 -4.6875 4.953125 -4.816406 5.203125 -5.078125 C 5.453125 -5.335938 5.578125 -5.679688 5.578125 -6.109375 C 5.578125 -6.535156 5.453125 -6.875 5.203125 -7.125 C 4.953125 -7.375 4.550781 -7.5 4 -7.5 L 2.484375 -7.5 Z M 2.484375 -4.6875 "/></g></g></g><g fill="#b9a666" fill-opacity="1"><g transform="translate(127.720726, 297.849355)"><g><path d="M 0.859375 0 L 0.859375 -8.859375 L 6.640625 -8.859375 L 6.640625 -7.5625 L 2.484375 -7.5625 L 2.484375 -5.125 L 6.265625 -5.125 L 6.265625 -3.859375 L 2.484375 -3.859375 L 2.484375 -1.296875 L 6.640625 -1.296875 L 6.640625 0 Z M 0.859375 0 "/></g></g></g><g fill="#b9a666" fill-opacity="1"><g transform="translate(135.029232, 297.849355)"><g><path d="M 0.296875 0 L 3.53125 -8.859375 L 5.359375 -8.859375 L 8.59375 0 L 6.875 0 L 6.15625 -2.046875 L 2.703125 -2.046875 L 1.984375 0 Z M 3.15625 -3.3125 L 5.71875 -3.3125 L 4.421875 -7 Z M 3.15625 -3.3125 "/></g></g></g><g fill="#b9a666" fill-opacity="1"><g transform="translate(143.893001, 297.849355)"><g><path d="M 0.859375 0 L 0.859375 -8.859375 L 2.484375 -8.859375 L 2.484375 -1.265625 L 6.40625 -1.265625 L 6.40625 0 Z M 0.859375 0 "/></g></g></g><g fill="#b9a666" fill-opacity="1"><g transform="translate(150.860106, 297.849355)"><g/></g></g><g fill="#b9a666" fill-opacity="1"><g transform="translate(153.86949, 297.849355)"><g><path d="M 0.859375 0 L 0.859375 -8.859375 L 6.640625 -8.859375 L 6.640625 -7.5625 L 2.484375 -7.5625 L 2.484375 -5.125 L 6.265625 -5.125 L 6.265625 -3.859375 L 2.484375 -3.859375 L 2.484375 -1.296875 L 6.640625 -1.296875 L 6.640625 0 Z M 0.859375 0 "/></g></g></g><g fill="#b9a666" fill-opacity="1"><g transform="translate(161.177996, 297.849355)"><g><path d="M 3.890625 0.15625 C 3.234375 0.15625 2.65625 0.046875 2.15625 -0.171875 C 1.664062 -0.398438 1.273438 -0.722656 0.984375 -1.140625 C 0.703125 -1.554688 0.554688 -2.066406 0.546875 -2.671875 L 2.25 -2.671875 C 2.269531 -2.253906 2.421875 -1.90625 2.703125 -1.625 C 2.984375 -1.34375 3.375 -1.203125 3.875 -1.203125 C 4.300781 -1.203125 4.640625 -1.304688 4.890625 -1.515625 C 5.148438 -1.722656 5.28125 -2 5.28125 -2.34375 C 5.28125 -2.707031 5.164062 -2.988281 4.9375 -3.1875 C 4.71875 -3.394531 4.421875 -3.5625 4.046875 -3.6875 C 3.679688 -3.8125 3.285156 -3.945312 2.859375 -4.09375 C 2.171875 -4.320312 1.648438 -4.625 1.296875 -5 C 0.941406 -5.375 0.765625 -5.867188 0.765625 -6.484375 C 0.753906 -7.003906 0.875 -7.453125 1.125 -7.828125 C 1.382812 -8.203125 1.738281 -8.492188 2.1875 -8.703125 C 2.632812 -8.910156 3.148438 -9.015625 3.734375 -9.015625 C 4.328125 -9.015625 4.847656 -8.90625 5.296875 -8.6875 C 5.742188 -8.476562 6.097656 -8.179688 6.359375 -7.796875 C 6.617188 -7.421875 6.753906 -6.972656 6.765625 -6.453125 L 5.03125 -6.453125 C 5.03125 -6.765625 4.910156 -7.039062 4.671875 -7.28125 C 4.441406 -7.519531 4.117188 -7.640625 3.703125 -7.640625 C 3.347656 -7.648438 3.050781 -7.5625 2.8125 -7.375 C 2.570312 -7.195312 2.453125 -6.9375 2.453125 -6.59375 C 2.453125 -6.300781 2.546875 -6.066406 2.734375 -5.890625 C 2.921875 -5.710938 3.171875 -5.566406 3.484375 -5.453125 C 3.804688 -5.335938 4.175781 -5.210938 4.59375 -5.078125 C 5.03125 -4.921875 5.429688 -4.738281 5.796875 -4.53125 C 6.160156 -4.332031 6.453125 -4.066406 6.671875 -3.734375 C 6.890625 -3.398438 7 -2.972656 7 -2.453125 C 7 -1.992188 6.878906 -1.5625 6.640625 -1.15625 C 6.410156 -0.757812 6.0625 -0.441406 5.59375 -0.203125 C 5.125 0.0351562 4.554688 0.15625 3.890625 0.15625 Z M 3.890625 0.15625 "/></g></g></g><g fill="#b9a666" fill-opacity="1"><g transform="translate(168.726747, 297.849355)"><g><path d="M 2.921875 0 L 2.921875 -7.5625 L 0.34375 -7.5625 L 0.34375 -8.859375 L 7.140625 -8.859375 L 7.140625 -7.5625 L 4.546875 -7.5625 L 4.546875 0 Z M 2.921875 0 "/></g></g></g><g fill="#b9a666" fill-opacity="1"><g transform="translate(176.199624, 297.849355)"><g><path d="M 0.296875 0 L 3.53125 -8.859375 L 5.359375 -8.859375 L 8.59375 0 L 6.875 0 L 6.15625 -2.046875 L 2.703125 -2.046875 L 1.984375 0 Z M 3.15625 -3.3125 L 5.71875 -3.3125 L 4.421875 -7 Z M 3.15625 -3.3125 "/></g></g></g><g fill="#b9a666" fill-opacity="1"><g transform="translate(185.063393, 297.849355)"><g><path d="M 2.921875 0 L 2.921875 -7.5625 L 0.34375 -7.5625 L 0.34375 -8.859375 L 7.140625 -8.859375 L 7.140625 -7.5625 L 4.546875 -7.5625 L 4.546875 0 Z M 2.921875 0 "/></g></g></g><g fill="#b9a666" fill-opacity="1"><g transform="translate(192.53627, 297.849355)"><g><path d="M 0.859375 0 L 0.859375 -8.859375 L 6.640625 -8.859375 L 6.640625 -7.5625 L 2.484375 -7.5625 L 2.484375 -5.125 L 6.265625 -5.125 L 6.265625 -3.859375 L 2.484375 -3.859375 L 2.484375 -1.296875 L 6.640625 -1.296875 L 6.640625 0 Z M 0.859375 0 "/></g></g></g><g fill="#b9a666" fill-opacity="1"><g transform="translate(199.844776, 297.849355)"><g/></g></g><g fill="#b9a666" fill-opacity="1"><g transform="translate(202.85416, 297.849355)"><g><path d="M 0.296875 0 L 3.53125 -8.859375 L 5.359375 -8.859375 L 8.59375 0 L 6.875 0 L 6.15625 -2.046875 L 2.703125 -2.046875 L 1.984375 0 Z M 3.15625 -3.3125 L 5.71875 -3.3125 L 4.421875 -7 Z M 3.15625 -3.3125 "/></g></g></g><g fill="#b9a666" fill-opacity="1"><g transform="translate(211.717929, 297.849355)"><g><path d="M 4.734375 0.15625 C 3.898438 0.15625 3.171875 -0.03125 2.546875 -0.40625 C 1.921875 -0.789062 1.429688 -1.320312 1.078125 -2 C 0.734375 -2.6875 0.5625 -3.476562 0.5625 -4.375 C 0.5625 -5.289062 0.738281 -6.09375 1.09375 -6.78125 C 1.457031 -7.476562 1.96875 -8.023438 2.625 -8.421875 C 3.289062 -8.816406 4.082031 -9.015625 5 -9.015625 C 6.039062 -9.015625 6.898438 -8.765625 7.578125 -8.265625 C 8.265625 -7.765625 8.707031 -7.078125 8.90625 -6.203125 L 7.09375 -6.203125 C 6.957031 -6.617188 6.710938 -6.941406 6.359375 -7.171875 C 6.003906 -7.398438 5.550781 -7.515625 5 -7.515625 C 4.113281 -7.515625 3.429688 -7.234375 2.953125 -6.671875 C 2.472656 -6.109375 2.234375 -5.335938 2.234375 -4.359375 C 2.234375 -3.378906 2.46875 -2.625 2.9375 -2.09375 C 3.414062 -1.5625 4.066406 -1.296875 4.890625 -1.296875 C 5.691406 -1.296875 6.296875 -1.507812 6.703125 -1.9375 C 7.109375 -2.375 7.351562 -2.945312 7.4375 -3.65625 L 5.203125 -3.65625 L 5.203125 -4.875 L 9.078125 -4.875 L 9.078125 0 L 7.578125 0 L 7.453125 -1.171875 C 7.171875 -0.742188 6.8125 -0.414062 6.375 -0.1875 C 5.945312 0.0390625 5.398438 0.15625 4.734375 0.15625 Z M 4.734375 0.15625 "/></g></g></g><g fill="#b9a666" fill-opacity="1"><g transform="translate(221.492098, 297.849355)"><g><path d="M 0.859375 0 L 0.859375 -8.859375 L 6.640625 -8.859375 L 6.640625 -7.5625 L 2.484375 -7.5625 L 2.484375 -5.125 L 6.265625 -5.125 L 6.265625 -3.859375 L 2.484375 -3.859375 L 2.484375 -1.296875 L 6.640625 -1.296875 L 6.640625 0 Z M 0.859375 0 "/></g></g></g><g fill="#b9a666" fill-opacity="1"><g transform="translate(228.800603, 297.849355)"><g><path d="M 0.859375 0 L 0.859375 -8.859375 L 2.484375 -8.859375 L 6.640625 -2.625 L 6.640625 -8.859375 L 8.265625 -8.859375 L 8.265625 0 L 6.640625 0 L 2.484375 -6.234375 L 2.484375 0 Z M 0.859375 0 "/></g></g></g><g fill="#b9a666" fill-opacity="1"><g transform="translate(237.917264, 297.849355)"><g><path d="M 4.875 0.15625 C 3.976562 0.15625 3.207031 -0.0351562 2.5625 -0.421875 C 1.925781 -0.804688 1.429688 -1.34375 1.078125 -2.03125 C 0.734375 -2.71875 0.5625 -3.515625 0.5625 -4.421875 C 0.5625 -5.316406 0.734375 -6.109375 1.078125 -6.796875 C 1.429688 -7.492188 1.925781 -8.035156 2.5625 -8.421875 C 3.207031 -8.816406 3.976562 -9.015625 4.875 -9.015625 C 5.9375 -9.015625 6.804688 -8.75 7.484375 -8.21875 C 8.160156 -7.6875 8.585938 -6.945312 8.765625 -6 L 6.96875 -6 C 6.863281 -6.476562 6.628906 -6.851562 6.265625 -7.125 C 5.910156 -7.40625 5.4375 -7.546875 4.84375 -7.546875 C 4.03125 -7.546875 3.390625 -7.265625 2.921875 -6.703125 C 2.460938 -6.148438 2.234375 -5.390625 2.234375 -4.421875 C 2.234375 -3.453125 2.460938 -2.6875 2.921875 -2.125 C 3.390625 -1.570312 4.03125 -1.296875 4.84375 -1.296875 C 5.4375 -1.296875 5.910156 -1.425781 6.265625 -1.6875 C 6.628906 -1.945312 6.863281 -2.304688 6.96875 -2.765625 L 8.765625 -2.765625 C 8.585938 -1.847656 8.160156 -1.128906 7.484375 -0.609375 C 6.804688 -0.0976562 5.9375 0.15625 4.875 0.15625 Z M 4.875 0.15625 "/></g></g></g><g fill="#b9a666" fill-opacity="1"><g transform="translate(247.236233, 297.849355)"><g><path d="M 3.15625 0 L 3.15625 -3.15625 L 0.171875 -8.859375 L 2.015625 -8.859375 L 3.96875 -4.765625 L 5.921875 -8.859375 L 7.734375 -8.859375 L 4.765625 -3.15625 L 4.765625 0 Z M 3.15625 0 "/></g></g></g></svg>