<svg xmlns="http://www.w3.org/2000/svg" xmlns:xlink="http://www.w3.org/1999/xlink" width="500" zoomAndPan="magnify" viewBox="0 0 375 374.999991" height="500" preserveAspectRatio="xMidYMid meet" version="1.0"><defs><g/><clipPath id="9928fd206f"><path d="M 0 176.671875 L 375 176.671875 L 375 222.226562 L 0 222.226562 Z M 0 176.671875 " clip-rule="nonzero"/></clipPath></defs><rect x="-37.5" width="450" fill="#ffffff" y="-37.499999" height="449.999989" fill-opacity="1"/><rect x="-37.5" width="450" fill="#2b2b2b" y="-37.499999" height="449.999989" fill-opacity="1"/><g fill="#dfd3b7" fill-opacity="1"><g transform="translate(109.265622, 267.391125)"><g><path d="M 5.351562 -2.140625 L 5.351562 0 L 56.542969 0 L 56.542969 -1.960938 L 48.515625 -1.960938 C 42.632812 -1.960938 36.210938 -5.53125 36.210938 -15.519531 C 36.210938 -21.761719 37.992188 -32.105469 41.027344 -44.59375 L 110.234375 -44.59375 C 116.121094 -24.617188 120.402344 -9.273438 120.402344 -6.601562 C 120.402344 -1.960938 117.191406 -1.960938 114.515625 -1.960938 L 106.308594 -1.960938 L 106.308594 0 L 154.113281 0 L 154.113281 -2.140625 L 147.691406 -2.140625 C 138.417969 -2.140625 133.601562 -12.308594 130.390625 -19.265625 C 127.535156 -25.507812 88.117188 -158.574219 80.980469 -181.941406 L 78.839844 -181.941406 C 71.707031 -158.574219 31.75 -25.507812 29.074219 -19.265625 C 26.042969 -12.308594 21.046875 -2.140625 11.773438 -2.140625 Z M 58.328125 -105.238281 C 65.105469 -127.359375 71.527344 -147.871094 74.917969 -159.464844 L 74.203125 -161.605469 C 74.203125 -161.605469 95.964844 -92.753906 109.519531 -46.734375 L 41.5625 -46.734375 C 45.839844 -64.214844 52.085938 -85.441406 58.328125 -105.238281 Z M 58.328125 -105.238281 "/></g></g></g><g clip-path="url(#9928fd206f)"><path fill="#2b2b2b" d="M 0 176.671875 L 374.941406 176.671875 L 374.941406 222.226562 L 0 222.226562 Z M 0 176.671875 " fill-opacity="1" fill-rule="nonzero"/></g><g fill="#dfd3b7" fill-opacity="1"><g transform="translate(105.175779, 214.822661)"><g><path d="M 53.632812 -2.953125 C 59.539062 -3.257812 62.648438 -6.671875 62.648438 -7.027344 C 62.648438 -7.179688 62.546875 -7.285156 62.390625 -7.285156 C 62.136719 -7.285156 61.117188 -5.652344 58.316406 -4.53125 C 56.6875 -3.921875 55.261719 -3.566406 53.835938 -3.566406 C 57.25 -10.289062 60.101562 -16.859375 64.277344 -23.632812 C 69.21875 -31.679688 72.578125 -34.941406 72.578125 -35.195312 C 72.578125 -35.398438 72.527344 -35.550781 72.324219 -35.550781 C 70.03125 -35.550781 61.984375 -30.761719 51.339844 -19.152344 C 49.40625 -23.074219 45.433594 -26.433594 40.746094 -26.433594 C 37.128906 -26.433594 33.054688 -23.734375 33.054688 -18.335938 C 33.054688 -13.648438 35.855469 -10.085938 39.421875 -7.285156 C 33.871094 -2.546875 28.320312 -0.304688 21.492188 -0.304688 C 15.738281 -0.304688 9.933594 -4.074219 9.933594 -9.066406 C 9.933594 -15.382812 16.707031 -19.761719 22.511719 -19.761719 C 27.65625 -19.761719 30.304688 -17.316406 30.304688 -13.90625 C 30.304688 -9.117188 25.566406 -6.113281 20.320312 -6.113281 C 19.457031 -6.113281 19.046875 -6.265625 18.792969 -6.265625 C 18.539062 -6.265625 18.488281 -6.164062 18.488281 -5.960938 C 18.488281 -5.601562 18.742188 -5.5 20.832031 -5.5 C 25.617188 -5.5 31.121094 -8.660156 31.121094 -14.007812 C 31.121094 -18.03125 27.757812 -21.695312 21.542969 -21.695312 C 16.246094 -21.695312 8.609375 -17.417969 8.609375 -9.984375 C 8.609375 -3.871094 14.617188 0.304688 21.644531 0.304688 C 29.183594 0.304688 35.398438 -2.851562 39.980469 -6.875 C 42.886719 -4.6875 46.601562 -3.667969 50.269531 -3.15625 L 48.84375 0 L 52.511719 0 Z M 52.105469 -11.867188 C 52.105469 -9.066406 51.390625 -6.367188 50.472656 -3.769531 C 47.214844 -4.175781 43.34375 -5.144531 40.492188 -7.335938 C 44.3125 -10.59375 47.519531 -14.414062 51.085938 -17.929688 C 51.695312 -16.453125 52.105469 -13.90625 52.105469 -11.867188 Z M 52.308594 -7.539062 C 52.5625 -9.015625 52.714844 -10.59375 52.714844 -12.222656 C 52.714844 -14.261719 52.460938 -16.398438 51.59375 -18.4375 C 59.335938 -26.6875 68.097656 -33.71875 70.441406 -34.023438 L 70.542969 -33.921875 C 62.75 -26.433594 56.6875 -17.265625 52.410156 -7.4375 Z M 34.992188 -17.417969 C 34.992188 -22.613281 38.65625 -24.90625 42.222656 -24.90625 C 46.398438 -24.90625 48.996094 -22.003906 50.832031 -18.589844 C 47.214844 -14.871094 43.800781 -11.050781 39.878906 -7.742188 C 37.230469 -9.828125 34.992188 -12.835938 34.992188 -17.417969 Z M 34.992188 -17.417969 "/></g></g></g><g fill="#dfd3b7" fill-opacity="1"><g transform="translate(158.957445, 214.822661)"><g><path d="M 17.570312 -18.742188 L 15.433594 -18.742188 C 15.382812 -18.742188 15.230469 -18.589844 15.230469 -18.4375 C 15.230469 -18.285156 15.28125 -18.132812 15.484375 -18.132812 L 17.316406 -18.132812 C 14.972656 -14.71875 11.867188 -11.050781 10.339844 -9.371094 C 8.351562 -7.128906 8.148438 -6.925781 8.148438 -6.722656 C 8.148438 -6.570312 8.25 -6.519531 8.402344 -6.519531 C 8.558594 -6.519531 9.933594 -8.199219 10.390625 -8.710938 C 11.765625 -10.289062 12.53125 -11.101562 13.496094 -12.273438 L 13.597656 -12.171875 C 10.59375 -7.894531 8.863281 -5.398438 8.863281 -2.496094 C 8.863281 -1.324219 9.523438 -0.0507812 11.257812 0 C 12.683594 0 14.515625 -1.070312 17.621094 -4.175781 C 18.742188 -5.246094 20.371094 -7.128906 20.371094 -7.285156 C 20.371094 -7.488281 20.320312 -7.589844 20.117188 -7.589844 C 19.863281 -7.589844 19.558594 -6.773438 16.960938 -4.226562 C 14.667969 -1.933594 12.886719 -0.609375 11.359375 -0.609375 C 10.695312 -0.609375 10.390625 -0.867188 10.390625 -1.375 C 10.390625 -3.71875 18.488281 -15.332031 20.066406 -18.132812 L 26.382812 -18.132812 C 26.585938 -18.132812 26.636719 -18.285156 26.636719 -18.4375 C 26.636719 -18.640625 26.484375 -18.742188 26.382812 -18.742188 L 20.425781 -18.742188 L 23.734375 -23.835938 L 20.578125 -23.632812 Z M 17.570312 -18.742188 "/></g></g></g><g fill="#dfd3b7" fill-opacity="1"><g transform="translate(170.263818, 214.822661)"><g><path d="M 9.625 -0.304688 C 11.050781 -3.105469 20.320312 -13.546875 23.023438 -13.546875 C 23.277344 -13.546875 23.582031 -13.242188 23.582031 -12.886719 C 23.582031 -10.847656 17.980469 -7.285156 17.980469 -2.800781 C 17.980469 -0.558594 18.996094 0 20.015625 0 C 21.238281 0 22.917969 -0.558594 26.535156 -4.53125 C 27.859375 -5.960938 29.082031 -7.386719 29.082031 -7.539062 C 29.082031 -7.691406 28.980469 -7.792969 28.828125 -7.792969 C 28.574219 -7.792969 27.402344 -6.164062 26.230469 -4.992188 C 23.378906 -2.039062 21.851562 -0.609375 20.269531 -0.609375 C 19.761719 -0.609375 19.507812 -0.96875 19.507812 -1.324219 C 19.507812 -3.566406 25.109375 -8.710938 25.109375 -11.511719 C 25.109375 -12.835938 24.550781 -14.160156 23.074219 -14.160156 C 21.289062 -14.160156 17.570312 -10.949219 12.683594 -5.347656 L 12.582031 -5.449219 C 16.195312 -11.867188 25.566406 -27.25 27.503906 -30.660156 L 24.398438 -30.304688 L 18.894531 -20.832031 C 14.363281 -13.039062 8.351562 -7.539062 8.351562 -7.027344 C 8.351562 -6.824219 8.402344 -6.722656 8.558594 -6.722656 C 8.761719 -6.722656 8.761719 -6.925781 10.949219 -9.320312 C 12.785156 -11.308594 13.496094 -12.375 14.921875 -13.957031 L 14.972656 -13.855469 C 12.121094 -9.574219 9.269531 -4.941406 6.46875 0 Z M 9.625 -0.304688 "/></g></g></g><g fill="#dfd3b7" fill-opacity="1"><g transform="translate(190.075428, 214.822661)"><g><path d="M 9.625 -0.304688 C 11.050781 -3.105469 20.320312 -13.546875 23.023438 -13.546875 C 23.277344 -13.546875 23.582031 -13.242188 23.582031 -12.886719 C 23.582031 -10.847656 17.980469 -7.285156 17.980469 -2.800781 C 17.980469 -0.558594 18.996094 0 20.015625 0 C 21.238281 0 22.917969 -0.558594 26.535156 -4.53125 C 27.859375 -5.960938 29.082031 -7.386719 29.082031 -7.539062 C 29.082031 -7.691406 28.980469 -7.792969 28.828125 -7.792969 C 28.574219 -7.792969 27.402344 -6.164062 26.230469 -4.992188 C 23.378906 -2.039062 21.851562 -0.609375 20.269531 -0.609375 C 19.761719 -0.609375 19.507812 -0.96875 19.507812 -1.324219 C 19.507812 -3.566406 25.109375 -8.710938 25.109375 -11.511719 C 25.109375 -12.835938 24.550781 -14.160156 23.074219 -14.160156 C 21.289062 -14.160156 17.570312 -10.949219 12.683594 -5.347656 L 12.582031 -5.449219 C 16.195312 -11.867188 25.566406 -27.25 27.503906 -30.660156 L 24.398438 -30.304688 L 18.894531 -20.832031 C 14.363281 -13.039062 8.351562 -7.539062 8.351562 -7.027344 C 8.351562 -6.824219 8.402344 -6.722656 8.558594 -6.722656 C 8.761719 -6.722656 8.761719 -6.925781 10.949219 -9.320312 C 12.785156 -11.308594 13.496094 -12.375 14.921875 -13.957031 L 14.972656 -13.855469 C 12.121094 -9.574219 9.269531 -4.941406 6.46875 0 Z M 9.625 -0.304688 "/></g></g></g><g fill="#dfd3b7" fill-opacity="1"><g transform="translate(209.887038, 214.822661)"><g><path d="M 11.917969 0 C 13.855469 0 16.707031 -2.902344 18.234375 -4.429688 C 18.234375 -4.175781 18.183594 -3.871094 18.183594 -3.515625 C 18.183594 -0.714844 19.046875 0 20.425781 0 C 21.800781 0 23.734375 -1.578125 26.078125 -4.023438 C 27.25 -5.296875 28.878906 -7.128906 28.878906 -7.230469 C 28.878906 -7.335938 28.777344 -7.539062 28.574219 -7.539062 C 28.472656 -7.539062 28.421875 -7.4375 27.808594 -6.722656 C 24.855469 -3.257812 22.105469 -0.609375 20.578125 -0.609375 C 19.914062 -0.609375 19.710938 -0.917969 19.710938 -1.324219 C 19.710938 -3.105469 25.617188 -12.171875 27.046875 -13.90625 L 24.601562 -13.800781 C 23.53125 -13.75 23.632812 -13.089844 21.800781 -10.1875 L 21.695312 -10.289062 C 21.800781 -10.59375 21.851562 -11.101562 21.851562 -11.664062 C 21.851562 -13.039062 21.1875 -14.160156 19.660156 -14.160156 C 16.144531 -14.160156 12.019531 -11.5625 9.269531 -8.199219 C 8.609375 -7.386719 8.453125 -7.335938 8.453125 -7.128906 C 8.453125 -7.027344 8.558594 -6.875 8.660156 -6.875 C 8.761719 -6.875 8.863281 -7.027344 8.964844 -7.027344 C 8.8125 -6.214844 8.710938 -5.449219 8.710938 -4.636719 C 8.710938 -2.34375 9.320312 0 11.917969 0 Z M 10.746094 -2.242188 C 10.746094 -5.90625 15.535156 -13.546875 19.660156 -13.546875 C 20.730469 -13.546875 21.238281 -12.734375 21.238281 -11.714844 C 21.238281 -7.945312 14.871094 -0.609375 11.917969 -0.609375 C 11.101562 -0.609375 10.746094 -1.273438 10.746094 -2.242188 Z M 10.746094 -2.242188 "/></g></g></g><g fill="#dfd3b7" fill-opacity="1"><g transform="translate(229.698649, 214.822661)"><g><path d="M 12.632812 -0.304688 C 14.160156 -2.699219 23.378906 -13.546875 25.824219 -13.546875 C 26.28125 -13.546875 26.535156 -13.292969 26.535156 -12.9375 C 26.535156 -11.5625 21.035156 -7.335938 21.035156 -3.257812 C 21.035156 -1.425781 21.75 0 23.277344 0 C 24.449219 0 26.230469 -1.375 28.472656 -3.617188 C 29.132812 -4.277344 31.679688 -7.078125 31.679688 -7.335938 C 31.679688 -7.4375 31.628906 -7.589844 31.476562 -7.589844 C 31.171875 -7.589844 31.375 -7.4375 28.777344 -4.6875 C 26.6875 -2.445312 24.550781 -0.609375 23.378906 -0.609375 C 22.867188 -0.609375 22.5625 -1.121094 22.5625 -1.628906 C 22.5625 -2.445312 23.683594 -4.277344 25.976562 -7.386719 C 26.839844 -8.558594 27.859375 -10.035156 27.859375 -11.765625 C 27.859375 -12.835938 27.300781 -14.160156 26.027344 -14.160156 C 23.429688 -14.160156 17.570312 -7.027344 15.585938 -5.144531 L 15.484375 -5.246094 C 16.605469 -6.722656 18.691406 -9.625 18.691406 -11.664062 C 18.691406 -13.191406 18.132812 -14.160156 16.808594 -14.160156 C 14.820312 -14.160156 12.785156 -12.324219 10.339844 -9.472656 C 9.675781 -8.710938 8.402344 -7.285156 8.402344 -7.128906 C 8.402344 -6.925781 8.503906 -6.824219 8.660156 -6.824219 C 8.863281 -6.824219 8.8125 -7.027344 11.207031 -9.625 C 13.800781 -12.476562 15.179688 -13.546875 16.605469 -13.546875 C 17.011719 -13.546875 17.367188 -13.292969 17.367188 -12.785156 C 17.367188 -11.207031 10.1875 -1.882812 9.21875 0 Z M 12.632812 -0.304688 "/></g></g></g><path stroke-linecap="butt" transform="matrix(0.75, 0, 0, 0.75, 102.823812, 221.478091)" fill="none" stroke-linejoin="miter" d="M 0.000542136 0.997962 L 225.80264 0.997962 " stroke="#dfd3b7" stroke-width="2" stroke-opacity="1" stroke-miterlimit="4"/><g fill="#dfd3b7" fill-opacity="1"><g transform="translate(123.034597, 90.863027)"><g><path d="M 0.511719 0 L 1.484375 0 L 1.484375 -4.277344 L 0.511719 -4.277344 Z M 0.511719 0 "/></g></g></g><g fill="#dfd3b7" fill-opacity="1"><g transform="translate(128.049105, 90.863027)"><g><path d="M 0.511719 0 L 1.476562 0 L 1.476562 -2.621094 L 3.367188 0 L 4.191406 0 L 4.191406 -4.277344 L 3.226562 -4.277344 L 3.226562 -1.671875 L 1.335938 -4.277344 L 0.511719 -4.277344 Z M 0.511719 0 "/></g></g></g><g fill="#dfd3b7" fill-opacity="1"><g transform="translate(135.769383, 90.863027)"><g><path d="M 1.699219 0 L 2.652344 0 L 4.292969 -4.277344 L 3.253906 -4.277344 L 2.179688 -1.398438 L 1.667969 -2.753906 L 1.097656 -4.277344 L 0.0546875 -4.277344 Z M 1.699219 0 "/></g></g></g><g fill="#dfd3b7" fill-opacity="1"><g transform="translate(143.135409, 90.863027)"><g><path d="M 0.511719 0 L 3.390625 0 L 3.390625 -0.824219 L 1.476562 -0.824219 L 1.476562 -1.757812 L 3.15625 -1.757812 L 3.15625 -2.570312 L 1.476562 -2.570312 L 1.476562 -3.457031 L 3.324219 -3.457031 L 3.324219 -4.277344 L 0.511719 -4.277344 Z M 0.511719 0 "/></g></g></g><g fill="#dfd3b7" fill-opacity="1"><g transform="translate(149.854002, 90.863027)"><g><path d="M 2.003906 0.0859375 C 3.015625 0.0859375 3.640625 -0.398438 3.640625 -1.203125 C 3.640625 -1.882812 3.195312 -2.285156 2.132812 -2.535156 C 1.476562 -2.6875 1.253906 -2.851562 1.253906 -3.113281 C 1.253906 -3.394531 1.503906 -3.566406 1.910156 -3.566406 C 2.359375 -3.566406 2.625 -3.335938 2.625 -2.949219 L 3.5625 -2.949219 C 3.5625 -3.8125 2.914062 -4.359375 1.898438 -4.359375 C 0.917969 -4.359375 0.304688 -3.878906 0.304688 -3.097656 C 0.304688 -2.398438 0.777344 -1.984375 1.777344 -1.769531 C 2.382812 -1.644531 2.65625 -1.464844 2.65625 -1.167969 C 2.65625 -0.878906 2.398438 -0.714844 1.996094 -0.714844 C 1.527344 -0.714844 1.222656 -0.953125 1.222656 -1.363281 L 0.269531 -1.363281 C 0.269531 -0.476562 0.929688 0.0859375 2.003906 0.0859375 Z M 2.003906 0.0859375 "/></g></g></g><g fill="#dfd3b7" fill-opacity="1"><g transform="translate(156.786366, 90.863027)"><g><path d="M 1.539062 0 L 2.511719 0 L 2.511719 -3.367188 L 3.867188 -3.367188 L 3.867188 -4.277344 L 0.183594 -4.277344 L 0.183594 -3.367188 L 1.539062 -3.367188 Z M 1.539062 0 "/></g></g></g><g fill="#dfd3b7" fill-opacity="1"><g transform="translate(163.853106, 90.863027)"><g><path d="M 0.511719 0 L 1.476562 0 L 1.476562 -2.578125 L 2.515625 -1.058594 L 3.1875 -1.058594 L 4.226562 -2.570312 L 4.226562 0 L 5.191406 0 L 5.191406 -4.277344 L 4.375 -4.277344 L 2.859375 -2.058594 L 1.335938 -4.277344 L 0.511719 -4.277344 Z M 0.511719 0 "/></g></g></g><g fill="#dfd3b7" fill-opacity="1"><g transform="translate(172.575071, 90.863027)"><g><path d="M 0.511719 0 L 3.390625 0 L 3.390625 -0.824219 L 1.476562 -0.824219 L 1.476562 -1.757812 L 3.15625 -1.757812 L 3.15625 -2.570312 L 1.476562 -2.570312 L 1.476562 -3.457031 L 3.324219 -3.457031 L 3.324219 -4.277344 L 0.511719 -4.277344 Z M 0.511719 0 "/></g></g></g><g fill="#dfd3b7" fill-opacity="1"><g transform="translate(179.293664, 90.863027)"><g><path d="M 0.511719 0 L 1.476562 0 L 1.476562 -2.621094 L 3.367188 0 L 4.191406 0 L 4.191406 -4.277344 L 3.226562 -4.277344 L 3.226562 -1.671875 L 1.335938 -4.277344 L 0.511719 -4.277344 Z M 0.511719 0 "/></g></g></g><g fill="#dfd3b7" fill-opacity="1"><g transform="translate(123.034597, 99.006745)"><g><path d="M 1.539062 0 L 2.511719 0 L 2.511719 -3.367188 L 3.867188 -3.367188 L 3.867188 -4.277344 L 0.183594 -4.277344 L 0.183594 -3.367188 L 1.539062 -3.367188 Z M 1.539062 0 "/></g></g></g><g fill="#dfd3b7" fill-opacity="1"><g transform="translate(123.034597, 107.150463)"><g><path d="M 2.472656 0.0859375 C 3.597656 0.0859375 4.472656 -0.597656 4.683594 -1.636719 L 3.683594 -1.636719 C 3.507812 -1.148438 3.054688 -0.835938 2.492188 -0.835938 C 1.765625 -0.835938 1.253906 -1.367188 1.253906 -2.136719 C 1.253906 -2.90625 1.769531 -3.4375 2.5 -3.4375 C 3.042969 -3.4375 3.488281 -3.144531 3.652344 -2.675781 L 4.652344 -2.675781 C 4.410156 -3.703125 3.554688 -4.359375 2.46875 -4.359375 C 1.171875 -4.359375 0.261719 -3.445312 0.261719 -2.136719 C 0.261719 -0.832031 1.171875 0.0859375 2.472656 0.0859375 Z M 2.472656 0.0859375 "/></g></g></g><g fill="#dfd3b7" fill-opacity="1"><g transform="translate(130.980864, 107.150463)"><g><path d="M 2.539062 0.0859375 C 3.878906 0.0859375 4.824219 -0.832031 4.824219 -2.136719 C 4.824219 -3.445312 3.878906 -4.359375 2.539062 -4.359375 C 1.203125 -4.359375 0.261719 -3.445312 0.261719 -2.136719 C 0.261719 -0.832031 1.203125 0.0859375 2.539062 0.0859375 Z M 1.253906 -2.136719 C 1.253906 -2.90625 1.785156 -3.4375 2.539062 -3.4375 C 3.304688 -3.4375 3.828125 -2.90625 3.828125 -2.136719 C 3.828125 -1.367188 3.304688 -0.835938 2.539062 -0.835938 C 1.785156 -0.835938 1.253906 -1.367188 1.253906 -2.136719 Z M 1.253906 -2.136719 "/></g></g></g><g fill="#dfd3b7" fill-opacity="1"><g transform="translate(139.085931, 107.150463)"><g><path d="M 0.511719 0 L 1.476562 0 L 1.476562 -2.578125 L 2.515625 -1.058594 L 3.1875 -1.058594 L 4.226562 -2.570312 L 4.226562 0 L 5.191406 0 L 5.191406 -4.277344 L 4.375 -4.277344 L 2.859375 -2.058594 L 1.335938 -4.277344 L 0.511719 -4.277344 Z M 0.511719 0 "/></g></g></g><g fill="#dfd3b7" fill-opacity="1"><g transform="translate(147.807894, 107.150463)"><g><path d="M 0.511719 0 L 1.484375 0 L 1.484375 -1.191406 L 2.1875 -1.191406 C 3.21875 -1.191406 3.882812 -1.796875 3.882812 -2.730469 C 3.882812 -3.671875 3.21875 -4.277344 2.1875 -4.277344 L 0.511719 -4.277344 Z M 1.476562 -2.027344 L 1.476562 -3.425781 L 2.105469 -3.425781 C 2.613281 -3.425781 2.894531 -3.171875 2.894531 -2.722656 C 2.894531 -2.277344 2.613281 -2.027344 2.105469 -2.027344 Z M 1.476562 -2.027344 "/></g></g></g><g fill="#dfd3b7" fill-opacity="1"><g transform="translate(154.886851, 107.150463)"><g><path d="M 0.0546875 0 L 1.09375 0 L 1.378906 -0.738281 L 3.078125 -0.738281 L 3.367188 0 L 4.402344 0 L 2.707031 -4.277344 L 1.753906 -4.277344 Z M 1.628906 -1.503906 L 2.230469 -3.066406 L 2.835938 -1.503906 Z M 1.628906 -1.503906 "/></g></g></g><g fill="#dfd3b7" fill-opacity="1"><g transform="translate(162.362813, 107.150463)"><g><path d="M 0.511719 0 L 1.476562 0 L 1.476562 -2.621094 L 3.367188 0 L 4.191406 0 L 4.191406 -4.277344 L 3.226562 -4.277344 L 3.226562 -1.671875 L 1.335938 -4.277344 L 0.511719 -4.277344 Z M 0.511719 0 "/></g></g></g><g fill="#dfd3b7" fill-opacity="1"><g transform="translate(170.083092, 107.150463)"><g><path d="M 1.628906 0 L 2.601562 0 L 2.601562 -1.507812 L 4.171875 -4.277344 L 3.066406 -4.277344 L 2.539062 -3.285156 L 2.121094 -2.511719 L 1.691406 -3.285156 L 1.160156 -4.277344 L 0.0546875 -4.277344 L 1.628906 -1.496094 Z M 1.628906 0 "/></g></g></g><g fill="#dfd3b7" fill-opacity="1"><g transform="translate(206.009328, 90.863005)"><g><path d="M 0.3125 0 L 3.519531 0 L 3.519531 -0.847656 L 1.84375 -0.847656 L 2.652344 -1.550781 C 3.230469 -2.035156 3.4375 -2.511719 3.4375 -2.988281 C 3.4375 -3.816406 2.808594 -4.359375 1.898438 -4.359375 C 0.957031 -4.359375 0.371094 -3.792969 0.347656 -2.839844 L 1.234375 -2.839844 C 1.253906 -3.28125 1.496094 -3.53125 1.882812 -3.53125 C 2.253906 -3.53125 2.503906 -3.292969 2.503906 -2.945312 C 2.503906 -2.679688 2.363281 -2.457031 2.078125 -2.199219 L 0.3125 -0.683594 Z M 0.3125 0 "/></g></g></g><g fill="#dfd3b7" fill-opacity="1"><g transform="translate(212.953883, 90.863005)"><g><path d="M 2.144531 0.0859375 C 3.292969 0.0859375 3.980469 -0.75 3.980469 -2.136719 C 3.980469 -3.523438 3.292969 -4.359375 2.144531 -4.359375 C 0.996094 -4.359375 0.304688 -3.523438 0.304688 -2.136719 C 0.304688 -0.75 0.996094 0.0859375 2.144531 0.0859375 Z M 1.246094 -2.136719 C 1.246094 -2.988281 1.570312 -3.492188 2.144531 -3.492188 C 2.710938 -3.492188 3.035156 -2.988281 3.035156 -2.136719 C 3.035156 -1.289062 2.710938 -0.78125 2.144531 -0.78125 C 1.570312 -0.78125 1.246094 -1.289062 1.246094 -2.136719 Z M 1.246094 -2.136719 "/></g></g></g><g fill="#dfd3b7" fill-opacity="1"><g transform="translate(206.343347, 99.006693)"><g><path d="M 0.3125 0 L 3.519531 0 L 3.519531 -0.847656 L 1.84375 -0.847656 L 2.652344 -1.550781 C 3.230469 -2.035156 3.4375 -2.511719 3.4375 -2.988281 C 3.4375 -3.816406 2.808594 -4.359375 1.898438 -4.359375 C 0.957031 -4.359375 0.371094 -3.792969 0.347656 -2.839844 L 1.234375 -2.839844 C 1.253906 -3.28125 1.496094 -3.53125 1.882812 -3.53125 C 2.253906 -3.53125 2.503906 -3.292969 2.503906 -2.945312 C 2.503906 -2.679688 2.363281 -2.457031 2.078125 -2.199219 L 0.3125 -0.683594 Z M 0.3125 0 "/></g></g></g><g fill="#dfd3b7" fill-opacity="1"><g transform="translate(213.287902, 99.006693)"><g><path d="M 0.164062 -0.78125 L 2.300781 -0.78125 L 2.300781 0 L 3.253906 0 L 3.253906 -0.78125 L 3.792969 -0.78125 L 3.792969 -1.625 L 3.253906 -1.625 L 3.253906 -2.796875 L 2.5 -2.796875 L 2.351562 -1.605469 L 1.289062 -1.605469 L 2.601562 -4.277344 L 1.546875 -4.277344 L 0.164062 -1.460938 Z M 0.164062 -0.78125 "/></g></g></g></svg>